<mxfile host="app.diagrams.net" agent="Mozilla/5.0 (X11; Ubuntu; Linux x86_64; rv:131.0) Gecko/20100101 Firefox/131.0" version="24.7.17">
  <diagram name="Page-1" id="g-8VrxECPGMRBqIFdhwS">
    <mxGraphModel grid="1" page="1" gridSize="10" guides="1" tooltips="1" connect="1" arrows="1" fold="1" pageScale="1" pageWidth="850" pageHeight="1100" math="0" shadow="0">
      <root>
        <mxCell id="0" />
        <mxCell id="1" parent="0" />
        <mxCell id="TqVlApS9Lq8vHuwlS3Fd-2" style="edgeStyle=orthogonalEdgeStyle;rounded=0;orthogonalLoop=1;jettySize=auto;html=1;entryX=0.5;entryY=0;entryDx=0;entryDy=0;" edge="1" parent="1" source="TqVlApS9Lq8vHuwlS3Fd-1" target="KM78LgGcO-5bWVKjjNVh-5">
          <mxGeometry relative="1" as="geometry">
            <mxPoint x="200" y="-1010" as="targetPoint" />
          </mxGeometry>
        </mxCell>
        <mxCell id="TqVlApS9Lq8vHuwlS3Fd-1" value="Start" style="ellipse;whiteSpace=wrap;html=1;" vertex="1" parent="1">
          <mxGeometry x="150" y="-1100" width="100" height="60" as="geometry" />
        </mxCell>
        <mxCell id="TqVlApS9Lq8vHuwlS3Fd-4" style="edgeStyle=orthogonalEdgeStyle;rounded=0;orthogonalLoop=1;jettySize=auto;html=1;" edge="1" parent="1" source="TqVlApS9Lq8vHuwlS3Fd-3" target="TqVlApS9Lq8vHuwlS3Fd-5">
          <mxGeometry relative="1" as="geometry">
            <mxPoint x="200" y="-790" as="targetPoint" />
          </mxGeometry>
        </mxCell>
        <mxCell id="TqVlApS9Lq8vHuwlS3Fd-3" value="Input weather condition" style="shape=parallelogram;perimeter=parallelogramPerimeter;whiteSpace=wrap;html=1;fixedSize=1;" vertex="1" parent="1">
          <mxGeometry x="145" y="-880" width="110" height="50" as="geometry" />
        </mxCell>
        <mxCell id="TqVlApS9Lq8vHuwlS3Fd-8" style="edgeStyle=orthogonalEdgeStyle;rounded=0;orthogonalLoop=1;jettySize=auto;html=1;" edge="1" parent="1" source="TqVlApS9Lq8vHuwlS3Fd-5">
          <mxGeometry relative="1" as="geometry">
            <mxPoint x="200" y="-760" as="targetPoint" />
          </mxGeometry>
        </mxCell>
        <mxCell id="KM78LgGcO-5bWVKjjNVh-1" style="edgeStyle=orthogonalEdgeStyle;rounded=0;orthogonalLoop=1;jettySize=auto;html=1;" edge="1" parent="1" source="TqVlApS9Lq8vHuwlS3Fd-5" target="KM78LgGcO-5bWVKjjNVh-2">
          <mxGeometry relative="1" as="geometry">
            <mxPoint x="339.9999999999998" y="-800" as="targetPoint" />
            <Array as="points">
              <mxPoint x="340" y="-740" />
            </Array>
          </mxGeometry>
        </mxCell>
        <mxCell id="KM78LgGcO-5bWVKjjNVh-4" value="No" style="edgeLabel;html=1;align=center;verticalAlign=middle;resizable=0;points=[];" connectable="0" vertex="1" parent="KM78LgGcO-5bWVKjjNVh-1">
          <mxGeometry x="-0.5292" y="-1" relative="1" as="geometry">
            <mxPoint y="-1" as="offset" />
          </mxGeometry>
        </mxCell>
        <mxCell id="KM78LgGcO-5bWVKjjNVh-7" style="edgeStyle=orthogonalEdgeStyle;rounded=0;orthogonalLoop=1;jettySize=auto;html=1;" edge="1" parent="1" source="TqVlApS9Lq8vHuwlS3Fd-5">
          <mxGeometry relative="1" as="geometry">
            <mxPoint x="199.99999999999977" y="-600" as="targetPoint" />
          </mxGeometry>
        </mxCell>
        <mxCell id="KM78LgGcO-5bWVKjjNVh-8" value="Yes" style="edgeLabel;html=1;align=center;verticalAlign=middle;resizable=0;points=[];" connectable="0" vertex="1" parent="KM78LgGcO-5bWVKjjNVh-7">
          <mxGeometry x="-0.1894" y="1" relative="1" as="geometry">
            <mxPoint x="-2" y="4" as="offset" />
          </mxGeometry>
        </mxCell>
        <mxCell id="TqVlApS9Lq8vHuwlS3Fd-5" value="&lt;div&gt;Is weather&amp;nbsp;&lt;/div&gt;&lt;div&gt;sunny, rainy,&lt;/div&gt;&lt;div&gt;&amp;nbsp;windy, snowy&amp;nbsp;&lt;/div&gt;&lt;div&gt;or cloudy?&lt;/div&gt;" style="rhombus;whiteSpace=wrap;html=1;" vertex="1" parent="1">
          <mxGeometry x="120" y="-790" width="160" height="100" as="geometry" />
        </mxCell>
        <mxCell id="KM78LgGcO-5bWVKjjNVh-3" style="edgeStyle=orthogonalEdgeStyle;rounded=0;orthogonalLoop=1;jettySize=auto;html=1;" edge="1" parent="1" source="KM78LgGcO-5bWVKjjNVh-2">
          <mxGeometry relative="1" as="geometry">
            <mxPoint x="200" y="-900" as="targetPoint" />
            <Array as="points">
              <mxPoint x="340" y="-900" />
            </Array>
          </mxGeometry>
        </mxCell>
        <mxCell id="KM78LgGcO-5bWVKjjNVh-2" value="&lt;div&gt;Output&amp;nbsp;&lt;/div&gt;&lt;div&gt;&quot;Invalid type of&lt;/div&gt;&lt;div&gt;weather&quot;&lt;/div&gt;" style="shape=parallelogram;perimeter=parallelogramPerimeter;whiteSpace=wrap;html=1;fixedSize=1;" vertex="1" parent="1">
          <mxGeometry x="280" y="-850" width="120" height="50" as="geometry" />
        </mxCell>
        <mxCell id="KM78LgGcO-5bWVKjjNVh-6" style="edgeStyle=orthogonalEdgeStyle;rounded=0;orthogonalLoop=1;jettySize=auto;html=1;entryX=0.5;entryY=0;entryDx=0;entryDy=0;" edge="1" parent="1" source="KM78LgGcO-5bWVKjjNVh-5" target="TqVlApS9Lq8vHuwlS3Fd-3">
          <mxGeometry relative="1" as="geometry" />
        </mxCell>
        <mxCell id="KM78LgGcO-5bWVKjjNVh-5" value="Output &quot;What&#39;s the weather like today?&quot;" style="shape=parallelogram;perimeter=parallelogramPerimeter;whiteSpace=wrap;html=1;fixedSize=1;" vertex="1" parent="1">
          <mxGeometry x="130" y="-990" width="140" height="60" as="geometry" />
        </mxCell>
        <mxCell id="KM78LgGcO-5bWVKjjNVh-10" style="edgeStyle=orthogonalEdgeStyle;rounded=0;orthogonalLoop=1;jettySize=auto;html=1;" edge="1" parent="1" source="KM78LgGcO-5bWVKjjNVh-9">
          <mxGeometry relative="1" as="geometry">
            <mxPoint x="339.9999999999998" y="-470" as="targetPoint" />
          </mxGeometry>
        </mxCell>
        <mxCell id="KM78LgGcO-5bWVKjjNVh-13" value="No" style="edgeLabel;html=1;align=center;verticalAlign=middle;resizable=0;points=[];" connectable="0" vertex="1" parent="KM78LgGcO-5bWVKjjNVh-10">
          <mxGeometry x="-0.6095" y="-3" relative="1" as="geometry">
            <mxPoint y="-3" as="offset" />
          </mxGeometry>
        </mxCell>
        <mxCell id="KM78LgGcO-5bWVKjjNVh-11" style="edgeStyle=orthogonalEdgeStyle;rounded=0;orthogonalLoop=1;jettySize=auto;html=1;" edge="1" parent="1" source="KM78LgGcO-5bWVKjjNVh-9">
          <mxGeometry relative="1" as="geometry">
            <mxPoint x="60" y="-470" as="targetPoint" />
          </mxGeometry>
        </mxCell>
        <mxCell id="KM78LgGcO-5bWVKjjNVh-12" value="Yes" style="edgeLabel;html=1;align=center;verticalAlign=middle;resizable=0;points=[];" connectable="0" vertex="1" parent="KM78LgGcO-5bWVKjjNVh-11">
          <mxGeometry x="-0.5369" y="1" relative="1" as="geometry">
            <mxPoint y="-2" as="offset" />
          </mxGeometry>
        </mxCell>
        <mxCell id="KM78LgGcO-5bWVKjjNVh-9" value="&lt;div&gt;Is weather snowy&lt;/div&gt;&lt;div&gt;or rainy?&lt;/div&gt;" style="rhombus;whiteSpace=wrap;html=1;" vertex="1" parent="1">
          <mxGeometry x="130" y="-600" width="140" height="80" as="geometry" />
        </mxCell>
        <mxCell id="KM78LgGcO-5bWVKjjNVh-15" value="&lt;div&gt;Output&amp;nbsp;&lt;/div&gt;&lt;div&gt;&quot;Put on a jacket!&quot;&lt;br&gt;&lt;/div&gt;" style="shape=parallelogram;perimeter=parallelogramPerimeter;whiteSpace=wrap;html=1;fixedSize=1;" vertex="1" parent="1">
          <mxGeometry y="-470" width="120" height="50" as="geometry" />
        </mxCell>
        <mxCell id="KM78LgGcO-5bWVKjjNVh-16" value="&lt;div&gt;Output &quot;You don&#39;t&lt;/div&gt;&lt;div&gt;&amp;nbsp;need to put on&lt;/div&gt;&lt;div&gt;&amp;nbsp;a jacket&quot;&lt;/div&gt;" style="shape=parallelogram;perimeter=parallelogramPerimeter;whiteSpace=wrap;html=1;fixedSize=1;" vertex="1" parent="1">
          <mxGeometry x="260" y="-470" width="140" height="50" as="geometry" />
        </mxCell>
        <mxCell id="KM78LgGcO-5bWVKjjNVh-18" value="" style="endArrow=none;html=1;rounded=0;" edge="1" parent="1">
          <mxGeometry width="50" height="50" relative="1" as="geometry">
            <mxPoint x="200" y="-350" as="sourcePoint" />
            <mxPoint x="60" y="-420" as="targetPoint" />
            <Array as="points">
              <mxPoint x="60" y="-350" />
            </Array>
          </mxGeometry>
        </mxCell>
        <mxCell id="KM78LgGcO-5bWVKjjNVh-21" value="" style="endArrow=none;html=1;rounded=0;" edge="1" parent="1">
          <mxGeometry width="50" height="50" relative="1" as="geometry">
            <mxPoint x="200" y="-350" as="sourcePoint" />
            <mxPoint x="340" y="-420" as="targetPoint" />
            <Array as="points">
              <mxPoint x="340" y="-350" />
            </Array>
          </mxGeometry>
        </mxCell>
        <mxCell id="KM78LgGcO-5bWVKjjNVh-25" value="" style="endArrow=none;html=1;rounded=0;" edge="1" parent="1">
          <mxGeometry width="50" height="50" relative="1" as="geometry">
            <mxPoint x="200" y="-250" as="sourcePoint" />
            <mxPoint x="200" y="-350" as="targetPoint" />
          </mxGeometry>
        </mxCell>
        <mxCell id="KM78LgGcO-5bWVKjjNVh-27" value="1" style="ellipse;whiteSpace=wrap;html=1;aspect=fixed;" vertex="1" parent="1">
          <mxGeometry x="190" y="-250" width="20" height="20" as="geometry" />
        </mxCell>
        <mxCell id="KM78LgGcO-5bWVKjjNVh-29" style="edgeStyle=orthogonalEdgeStyle;rounded=0;orthogonalLoop=1;jettySize=auto;html=1;" edge="1" parent="1" source="KM78LgGcO-5bWVKjjNVh-28" target="KM78LgGcO-5bWVKjjNVh-30">
          <mxGeometry relative="1" as="geometry">
            <mxPoint x="495" y="-1030" as="targetPoint" />
          </mxGeometry>
        </mxCell>
        <mxCell id="KM78LgGcO-5bWVKjjNVh-28" value="1" style="ellipse;whiteSpace=wrap;html=1;aspect=fixed;" vertex="1" parent="1">
          <mxGeometry x="485" y="-1090" width="20" height="20" as="geometry" />
        </mxCell>
        <mxCell id="KM78LgGcO-5bWVKjjNVh-31" style="edgeStyle=orthogonalEdgeStyle;rounded=0;orthogonalLoop=1;jettySize=auto;html=1;" edge="1" parent="1" source="KM78LgGcO-5bWVKjjNVh-30">
          <mxGeometry relative="1" as="geometry">
            <mxPoint x="495" y="-930" as="targetPoint" />
          </mxGeometry>
        </mxCell>
        <mxCell id="KM78LgGcO-5bWVKjjNVh-78" value="No" style="edgeLabel;html=1;align=center;verticalAlign=middle;resizable=0;points=[];" connectable="0" vertex="1" parent="KM78LgGcO-5bWVKjjNVh-31">
          <mxGeometry x="-0.258" relative="1" as="geometry">
            <mxPoint as="offset" />
          </mxGeometry>
        </mxCell>
        <mxCell id="KM78LgGcO-5bWVKjjNVh-39" style="edgeStyle=orthogonalEdgeStyle;rounded=0;orthogonalLoop=1;jettySize=auto;html=1;" edge="1" parent="1" source="KM78LgGcO-5bWVKjjNVh-30" target="KM78LgGcO-5bWVKjjNVh-40">
          <mxGeometry relative="1" as="geometry">
            <mxPoint x="600" y="-1000" as="targetPoint" />
          </mxGeometry>
        </mxCell>
        <mxCell id="KM78LgGcO-5bWVKjjNVh-70" value="Yes" style="edgeLabel;html=1;align=center;verticalAlign=middle;resizable=0;points=[];" connectable="0" vertex="1" parent="KM78LgGcO-5bWVKjjNVh-39">
          <mxGeometry x="0.3231" y="2" relative="1" as="geometry">
            <mxPoint y="1" as="offset" />
          </mxGeometry>
        </mxCell>
        <mxCell id="KM78LgGcO-5bWVKjjNVh-30" value="Is weather sunny?" style="rhombus;whiteSpace=wrap;html=1;" vertex="1" parent="1">
          <mxGeometry x="425" y="-1040" width="140" height="80" as="geometry" />
        </mxCell>
        <mxCell id="KM78LgGcO-5bWVKjjNVh-57" style="edgeStyle=orthogonalEdgeStyle;rounded=0;orthogonalLoop=1;jettySize=auto;html=1;entryX=0;entryY=0.5;entryDx=0;entryDy=0;" edge="1" parent="1" source="KM78LgGcO-5bWVKjjNVh-32" target="KM78LgGcO-5bWVKjjNVh-46">
          <mxGeometry relative="1" as="geometry" />
        </mxCell>
        <mxCell id="KM78LgGcO-5bWVKjjNVh-71" value="Yes" style="edgeLabel;html=1;align=center;verticalAlign=middle;resizable=0;points=[];" connectable="0" vertex="1" parent="KM78LgGcO-5bWVKjjNVh-57">
          <mxGeometry x="0.3231" y="-3" relative="1" as="geometry">
            <mxPoint y="-4" as="offset" />
          </mxGeometry>
        </mxCell>
        <mxCell id="KM78LgGcO-5bWVKjjNVh-32" value="Is weather rainy?" style="rhombus;whiteSpace=wrap;html=1;" vertex="1" parent="1">
          <mxGeometry x="425" y="-930" width="140" height="80" as="geometry" />
        </mxCell>
        <mxCell id="KM78LgGcO-5bWVKjjNVh-33" style="edgeStyle=orthogonalEdgeStyle;rounded=0;orthogonalLoop=1;jettySize=auto;html=1;" edge="1" parent="1">
          <mxGeometry relative="1" as="geometry">
            <mxPoint x="495" y="-820" as="targetPoint" />
            <mxPoint x="495" y="-850" as="sourcePoint" />
          </mxGeometry>
        </mxCell>
        <mxCell id="KM78LgGcO-5bWVKjjNVh-77" value="No" style="edgeLabel;html=1;align=center;verticalAlign=middle;resizable=0;points=[];" connectable="0" vertex="1" parent="KM78LgGcO-5bWVKjjNVh-33">
          <mxGeometry x="-0.2889" relative="1" as="geometry">
            <mxPoint as="offset" />
          </mxGeometry>
        </mxCell>
        <mxCell id="KM78LgGcO-5bWVKjjNVh-58" style="edgeStyle=orthogonalEdgeStyle;rounded=0;orthogonalLoop=1;jettySize=auto;html=1;entryX=0;entryY=0.5;entryDx=0;entryDy=0;" edge="1" parent="1" source="KM78LgGcO-5bWVKjjNVh-34" target="KM78LgGcO-5bWVKjjNVh-49">
          <mxGeometry relative="1" as="geometry" />
        </mxCell>
        <mxCell id="KM78LgGcO-5bWVKjjNVh-72" value="Yes" style="edgeLabel;html=1;align=center;verticalAlign=middle;resizable=0;points=[];" connectable="0" vertex="1" parent="KM78LgGcO-5bWVKjjNVh-58">
          <mxGeometry x="0.4051" y="-1" relative="1" as="geometry">
            <mxPoint x="-1" y="-2" as="offset" />
          </mxGeometry>
        </mxCell>
        <mxCell id="KM78LgGcO-5bWVKjjNVh-34" value="Is weather cloudy?" style="rhombus;whiteSpace=wrap;html=1;" vertex="1" parent="1">
          <mxGeometry x="425" y="-820" width="140" height="80" as="geometry" />
        </mxCell>
        <mxCell id="KM78LgGcO-5bWVKjjNVh-35" style="edgeStyle=orthogonalEdgeStyle;rounded=0;orthogonalLoop=1;jettySize=auto;html=1;" edge="1" parent="1">
          <mxGeometry relative="1" as="geometry">
            <mxPoint x="495" y="-710" as="targetPoint" />
            <mxPoint x="495" y="-740" as="sourcePoint" />
          </mxGeometry>
        </mxCell>
        <mxCell id="KM78LgGcO-5bWVKjjNVh-59" style="edgeStyle=orthogonalEdgeStyle;rounded=0;orthogonalLoop=1;jettySize=auto;html=1;entryX=0;entryY=0.5;entryDx=0;entryDy=0;" edge="1" parent="1" source="KM78LgGcO-5bWVKjjNVh-36" target="KM78LgGcO-5bWVKjjNVh-52">
          <mxGeometry relative="1" as="geometry" />
        </mxCell>
        <mxCell id="KM78LgGcO-5bWVKjjNVh-73" value="Yes" style="edgeLabel;html=1;align=center;verticalAlign=middle;resizable=0;points=[];" connectable="0" vertex="1" parent="KM78LgGcO-5bWVKjjNVh-59">
          <mxGeometry x="0.3641" y="1" relative="1" as="geometry">
            <mxPoint as="offset" />
          </mxGeometry>
        </mxCell>
        <mxCell id="KM78LgGcO-5bWVKjjNVh-36" value="Is weather snowy?" style="rhombus;whiteSpace=wrap;html=1;" vertex="1" parent="1">
          <mxGeometry x="425" y="-710" width="140" height="80" as="geometry" />
        </mxCell>
        <mxCell id="KM78LgGcO-5bWVKjjNVh-37" style="edgeStyle=orthogonalEdgeStyle;rounded=0;orthogonalLoop=1;jettySize=auto;html=1;" edge="1" parent="1">
          <mxGeometry relative="1" as="geometry">
            <mxPoint x="495" y="-600" as="targetPoint" />
            <mxPoint x="495" y="-630" as="sourcePoint" />
          </mxGeometry>
        </mxCell>
        <mxCell id="KM78LgGcO-5bWVKjjNVh-75" value="No" style="edgeLabel;html=1;align=center;verticalAlign=middle;resizable=0;points=[];" connectable="0" vertex="1" parent="KM78LgGcO-5bWVKjjNVh-37">
          <mxGeometry x="-0.3778" relative="1" as="geometry">
            <mxPoint as="offset" />
          </mxGeometry>
        </mxCell>
        <mxCell id="KM78LgGcO-5bWVKjjNVh-60" style="edgeStyle=orthogonalEdgeStyle;rounded=0;orthogonalLoop=1;jettySize=auto;html=1;" edge="1" parent="1" source="KM78LgGcO-5bWVKjjNVh-38" target="KM78LgGcO-5bWVKjjNVh-55">
          <mxGeometry relative="1" as="geometry" />
        </mxCell>
        <mxCell id="KM78LgGcO-5bWVKjjNVh-74" value="Yes" style="edgeLabel;html=1;align=center;verticalAlign=middle;resizable=0;points=[];" connectable="0" vertex="1" parent="KM78LgGcO-5bWVKjjNVh-60">
          <mxGeometry x="0.4256" y="-1" relative="1" as="geometry">
            <mxPoint x="-2" y="-2" as="offset" />
          </mxGeometry>
        </mxCell>
        <mxCell id="KM78LgGcO-5bWVKjjNVh-38" value="Is weather windy?" style="rhombus;whiteSpace=wrap;html=1;" vertex="1" parent="1">
          <mxGeometry x="425" y="-600" width="140" height="80" as="geometry" />
        </mxCell>
        <mxCell id="KM78LgGcO-5bWVKjjNVh-41" style="edgeStyle=orthogonalEdgeStyle;rounded=0;orthogonalLoop=1;jettySize=auto;html=1;" edge="1" parent="1" source="KM78LgGcO-5bWVKjjNVh-40" target="KM78LgGcO-5bWVKjjNVh-42">
          <mxGeometry relative="1" as="geometry">
            <mxPoint x="730" y="-1000" as="targetPoint" />
          </mxGeometry>
        </mxCell>
        <mxCell id="KM78LgGcO-5bWVKjjNVh-40" value="&lt;div&gt;Output &quot;Perfect&amp;nbsp;&lt;/div&gt;&lt;div&gt;day for a picnic!&quot;&lt;/div&gt;" style="shape=parallelogram;perimeter=parallelogramPerimeter;whiteSpace=wrap;html=1;fixedSize=1;" vertex="1" parent="1">
          <mxGeometry x="590" y="-1030" width="140" height="60" as="geometry" />
        </mxCell>
        <mxCell id="KM78LgGcO-5bWVKjjNVh-42" value="weathernum=1" style="rounded=0;whiteSpace=wrap;html=1;" vertex="1" parent="1">
          <mxGeometry x="740" y="-1030" width="90" height="60" as="geometry" />
        </mxCell>
        <mxCell id="KM78LgGcO-5bWVKjjNVh-45" style="edgeStyle=orthogonalEdgeStyle;rounded=0;orthogonalLoop=1;jettySize=auto;html=1;" edge="1" parent="1" source="KM78LgGcO-5bWVKjjNVh-46" target="KM78LgGcO-5bWVKjjNVh-47">
          <mxGeometry relative="1" as="geometry">
            <mxPoint x="730" y="-890" as="targetPoint" />
          </mxGeometry>
        </mxCell>
        <mxCell id="KM78LgGcO-5bWVKjjNVh-46" value="&lt;div&gt;Output &quot;Perfect&amp;nbsp;&lt;/div&gt;&lt;div&gt;weather to stay inside and read a book!&quot;&lt;/div&gt;" style="shape=parallelogram;perimeter=parallelogramPerimeter;whiteSpace=wrap;html=1;fixedSize=1;" vertex="1" parent="1">
          <mxGeometry x="590" y="-920" width="140" height="60" as="geometry" />
        </mxCell>
        <mxCell id="KM78LgGcO-5bWVKjjNVh-47" value="weathernum=2" style="rounded=0;whiteSpace=wrap;html=1;" vertex="1" parent="1">
          <mxGeometry x="740" y="-920" width="90" height="60" as="geometry" />
        </mxCell>
        <mxCell id="KM78LgGcO-5bWVKjjNVh-48" style="edgeStyle=orthogonalEdgeStyle;rounded=0;orthogonalLoop=1;jettySize=auto;html=1;" edge="1" parent="1" source="KM78LgGcO-5bWVKjjNVh-49" target="KM78LgGcO-5bWVKjjNVh-50">
          <mxGeometry relative="1" as="geometry">
            <mxPoint x="730" y="-780" as="targetPoint" />
          </mxGeometry>
        </mxCell>
        <mxCell id="KM78LgGcO-5bWVKjjNVh-49" value="&lt;div&gt;Output &quot;How&amp;nbsp;&lt;/div&gt;&lt;div&gt;about visiting&amp;nbsp;&lt;/div&gt;&lt;div&gt;a museum?&quot;&lt;/div&gt;" style="shape=parallelogram;perimeter=parallelogramPerimeter;whiteSpace=wrap;html=1;fixedSize=1;" vertex="1" parent="1">
          <mxGeometry x="590" y="-810" width="140" height="60" as="geometry" />
        </mxCell>
        <mxCell id="KM78LgGcO-5bWVKjjNVh-50" value="weathernum=3" style="rounded=0;whiteSpace=wrap;html=1;" vertex="1" parent="1">
          <mxGeometry x="740" y="-810" width="90" height="60" as="geometry" />
        </mxCell>
        <mxCell id="KM78LgGcO-5bWVKjjNVh-51" style="edgeStyle=orthogonalEdgeStyle;rounded=0;orthogonalLoop=1;jettySize=auto;html=1;" edge="1" parent="1" source="KM78LgGcO-5bWVKjjNVh-52" target="KM78LgGcO-5bWVKjjNVh-53">
          <mxGeometry relative="1" as="geometry">
            <mxPoint x="730" y="-670" as="targetPoint" />
          </mxGeometry>
        </mxCell>
        <mxCell id="KM78LgGcO-5bWVKjjNVh-52" value="&lt;div&gt;Output &quot;Let&#39;s make a snowman!&quot;&lt;/div&gt;" style="shape=parallelogram;perimeter=parallelogramPerimeter;whiteSpace=wrap;html=1;fixedSize=1;" vertex="1" parent="1">
          <mxGeometry x="590" y="-700" width="140" height="60" as="geometry" />
        </mxCell>
        <mxCell id="KM78LgGcO-5bWVKjjNVh-53" value="weathernum=4" style="rounded=0;whiteSpace=wrap;html=1;" vertex="1" parent="1">
          <mxGeometry x="740" y="-700" width="90" height="60" as="geometry" />
        </mxCell>
        <mxCell id="KM78LgGcO-5bWVKjjNVh-54" style="edgeStyle=orthogonalEdgeStyle;rounded=0;orthogonalLoop=1;jettySize=auto;html=1;" edge="1" parent="1" source="KM78LgGcO-5bWVKjjNVh-55" target="KM78LgGcO-5bWVKjjNVh-56">
          <mxGeometry relative="1" as="geometry">
            <mxPoint x="730" y="-560" as="targetPoint" />
          </mxGeometry>
        </mxCell>
        <mxCell id="KM78LgGcO-5bWVKjjNVh-55" value="&lt;div&gt;Output &quot;Launch a&amp;nbsp;&lt;/div&gt;&lt;div&gt;kite, if you have one&quot;&lt;/div&gt;" style="shape=parallelogram;perimeter=parallelogramPerimeter;whiteSpace=wrap;html=1;fixedSize=1;" vertex="1" parent="1">
          <mxGeometry x="590" y="-590" width="140" height="60" as="geometry" />
        </mxCell>
        <mxCell id="KM78LgGcO-5bWVKjjNVh-56" value="weathernum=5" style="rounded=0;whiteSpace=wrap;html=1;" vertex="1" parent="1">
          <mxGeometry x="740" y="-590" width="90" height="60" as="geometry" />
        </mxCell>
        <mxCell id="KM78LgGcO-5bWVKjjNVh-66" value="" style="endArrow=none;html=1;rounded=0;" edge="1" parent="1">
          <mxGeometry width="50" height="50" relative="1" as="geometry">
            <mxPoint x="830" y="-890" as="sourcePoint" />
            <mxPoint x="870" y="-890" as="targetPoint" />
          </mxGeometry>
        </mxCell>
        <mxCell id="KM78LgGcO-5bWVKjjNVh-67" value="" style="endArrow=none;html=1;rounded=0;" edge="1" parent="1">
          <mxGeometry width="50" height="50" relative="1" as="geometry">
            <mxPoint x="830" y="-780.28" as="sourcePoint" />
            <mxPoint x="870" y="-780.28" as="targetPoint" />
          </mxGeometry>
        </mxCell>
        <mxCell id="KM78LgGcO-5bWVKjjNVh-68" value="" style="endArrow=none;html=1;rounded=0;" edge="1" parent="1">
          <mxGeometry width="50" height="50" relative="1" as="geometry">
            <mxPoint x="830" y="-670.3299999999999" as="sourcePoint" />
            <mxPoint x="870" y="-670.3299999999999" as="targetPoint" />
          </mxGeometry>
        </mxCell>
        <mxCell id="KM78LgGcO-5bWVKjjNVh-69" value="" style="endArrow=none;html=1;rounded=0;" edge="1" parent="1">
          <mxGeometry width="50" height="50" relative="1" as="geometry">
            <mxPoint x="830" y="-560.3299999999999" as="sourcePoint" />
            <mxPoint x="870" y="-560.3299999999999" as="targetPoint" />
          </mxGeometry>
        </mxCell>
        <mxCell id="KM78LgGcO-5bWVKjjNVh-76" value="No" style="edgeLabel;html=1;align=center;verticalAlign=middle;resizable=0;points=[];" connectable="0" vertex="1" parent="1">
          <mxGeometry x="511" y="-607.6666666666666" as="geometry">
            <mxPoint x="-17" y="-123" as="offset" />
          </mxGeometry>
        </mxCell>
        <mxCell id="KM78LgGcO-5bWVKjjNVh-82" style="edgeStyle=orthogonalEdgeStyle;rounded=0;orthogonalLoop=1;jettySize=auto;html=1;" edge="1" parent="1" source="KM78LgGcO-5bWVKjjNVh-81">
          <mxGeometry relative="1" as="geometry">
            <mxPoint x="1000" y="-1030" as="targetPoint" />
          </mxGeometry>
        </mxCell>
        <mxCell id="KM78LgGcO-5bWVKjjNVh-81" value="2" style="ellipse;whiteSpace=wrap;html=1;aspect=fixed;" vertex="1" parent="1">
          <mxGeometry x="990" y="-1090" width="20" height="20" as="geometry" />
        </mxCell>
        <mxCell id="KM78LgGcO-5bWVKjjNVh-86" style="edgeStyle=orthogonalEdgeStyle;rounded=0;orthogonalLoop=1;jettySize=auto;html=1;entryX=0.5;entryY=0;entryDx=0;entryDy=0;" edge="1" parent="1" source="KM78LgGcO-5bWVKjjNVh-84" target="KM78LgGcO-5bWVKjjNVh-85">
          <mxGeometry relative="1" as="geometry" />
        </mxCell>
        <mxCell id="KM78LgGcO-5bWVKjjNVh-84" value="Switch (weathernum)" style="rounded=0;whiteSpace=wrap;html=1;" vertex="1" parent="1">
          <mxGeometry x="945" y="-1030" width="110" height="50" as="geometry" />
        </mxCell>
        <mxCell id="KM78LgGcO-5bWVKjjNVh-96" style="edgeStyle=orthogonalEdgeStyle;rounded=0;orthogonalLoop=1;jettySize=auto;html=1;" edge="1" parent="1" source="KM78LgGcO-5bWVKjjNVh-85">
          <mxGeometry relative="1" as="geometry">
            <mxPoint x="1000" y="-840" as="targetPoint" />
          </mxGeometry>
        </mxCell>
        <mxCell id="KM78LgGcO-5bWVKjjNVh-120" value="No" style="edgeLabel;html=1;align=center;verticalAlign=middle;resizable=0;points=[];" connectable="0" vertex="1" parent="KM78LgGcO-5bWVKjjNVh-96">
          <mxGeometry x="-0.258" relative="1" as="geometry">
            <mxPoint y="-2" as="offset" />
          </mxGeometry>
        </mxCell>
        <mxCell id="KM78LgGcO-5bWVKjjNVh-111" style="edgeStyle=orthogonalEdgeStyle;rounded=0;orthogonalLoop=1;jettySize=auto;html=1;" edge="1" parent="1" source="KM78LgGcO-5bWVKjjNVh-85">
          <mxGeometry relative="1" as="geometry">
            <mxPoint x="1110" y="-910" as="targetPoint" />
          </mxGeometry>
        </mxCell>
        <mxCell id="KM78LgGcO-5bWVKjjNVh-112" value="Yes" style="edgeLabel;html=1;align=center;verticalAlign=middle;resizable=0;points=[];" connectable="0" vertex="1" parent="KM78LgGcO-5bWVKjjNVh-111">
          <mxGeometry x="-0.2436" y="-1" relative="1" as="geometry">
            <mxPoint y="-2" as="offset" />
          </mxGeometry>
        </mxCell>
        <mxCell id="KM78LgGcO-5bWVKjjNVh-85" value="weathernum==1?" style="rhombus;whiteSpace=wrap;html=1;" vertex="1" parent="1">
          <mxGeometry x="930" y="-950" width="140" height="80" as="geometry" />
        </mxCell>
        <mxCell id="KM78LgGcO-5bWVKjjNVh-90" value="" style="endArrow=none;html=1;rounded=0;" edge="1" parent="1">
          <mxGeometry width="50" height="50" relative="1" as="geometry">
            <mxPoint x="830" y="-1000.33" as="sourcePoint" />
            <mxPoint x="870" y="-1000.33" as="targetPoint" />
          </mxGeometry>
        </mxCell>
        <mxCell id="KM78LgGcO-5bWVKjjNVh-91" value="" style="endArrow=none;html=1;rounded=0;" edge="1" parent="1">
          <mxGeometry width="50" height="50" relative="1" as="geometry">
            <mxPoint x="870" y="-460" as="sourcePoint" />
            <mxPoint x="870" y="-1000" as="targetPoint" />
          </mxGeometry>
        </mxCell>
        <mxCell id="KM78LgGcO-5bWVKjjNVh-92" value="2" style="ellipse;whiteSpace=wrap;html=1;aspect=fixed;" vertex="1" parent="1">
          <mxGeometry x="860" y="-460" width="20" height="20" as="geometry" />
        </mxCell>
        <mxCell id="KM78LgGcO-5bWVKjjNVh-95" value="" style="endArrow=none;html=1;rounded=0;" edge="1" parent="1">
          <mxGeometry width="50" height="50" relative="1" as="geometry">
            <mxPoint x="870" y="-480" as="sourcePoint" />
            <mxPoint x="495" y="-520" as="targetPoint" />
            <Array as="points">
              <mxPoint x="495" y="-480" />
            </Array>
          </mxGeometry>
        </mxCell>
        <mxCell id="nE8KXUp-fotR7jertzR5-1" value="No" style="edgeLabel;html=1;align=center;verticalAlign=middle;resizable=0;points=[];" connectable="0" vertex="1" parent="KM78LgGcO-5bWVKjjNVh-95">
          <mxGeometry x="0.8963" y="-1" relative="1" as="geometry">
            <mxPoint x="49" y="18" as="offset" />
          </mxGeometry>
        </mxCell>
        <mxCell id="KM78LgGcO-5bWVKjjNVh-97" style="edgeStyle=orthogonalEdgeStyle;rounded=0;orthogonalLoop=1;jettySize=auto;html=1;" edge="1" parent="1" source="KM78LgGcO-5bWVKjjNVh-98">
          <mxGeometry relative="1" as="geometry">
            <mxPoint x="1000" y="-730" as="targetPoint" />
          </mxGeometry>
        </mxCell>
        <mxCell id="KM78LgGcO-5bWVKjjNVh-119" value="No" style="edgeLabel;html=1;align=center;verticalAlign=middle;resizable=0;points=[];" connectable="0" vertex="1" parent="KM78LgGcO-5bWVKjjNVh-97">
          <mxGeometry x="-0.3016" relative="1" as="geometry">
            <mxPoint as="offset" />
          </mxGeometry>
        </mxCell>
        <mxCell id="KM78LgGcO-5bWVKjjNVh-110" style="edgeStyle=orthogonalEdgeStyle;rounded=0;orthogonalLoop=1;jettySize=auto;html=1;" edge="1" parent="1" source="KM78LgGcO-5bWVKjjNVh-98">
          <mxGeometry relative="1" as="geometry">
            <mxPoint x="1110" y="-800" as="targetPoint" />
          </mxGeometry>
        </mxCell>
        <mxCell id="KM78LgGcO-5bWVKjjNVh-113" value="Yes" style="edgeLabel;html=1;align=center;verticalAlign=middle;resizable=0;points=[];" connectable="0" vertex="1" parent="KM78LgGcO-5bWVKjjNVh-110">
          <mxGeometry x="-0.3093" y="-1" relative="1" as="geometry">
            <mxPoint x="1" y="-2" as="offset" />
          </mxGeometry>
        </mxCell>
        <mxCell id="KM78LgGcO-5bWVKjjNVh-98" value="weathernum==2?" style="rhombus;whiteSpace=wrap;html=1;" vertex="1" parent="1">
          <mxGeometry x="930" y="-840" width="140" height="80" as="geometry" />
        </mxCell>
        <mxCell id="KM78LgGcO-5bWVKjjNVh-99" style="edgeStyle=orthogonalEdgeStyle;rounded=0;orthogonalLoop=1;jettySize=auto;html=1;" edge="1" parent="1" source="KM78LgGcO-5bWVKjjNVh-100">
          <mxGeometry relative="1" as="geometry">
            <mxPoint x="1000" y="-620" as="targetPoint" />
          </mxGeometry>
        </mxCell>
        <mxCell id="KM78LgGcO-5bWVKjjNVh-118" value="No" style="edgeLabel;html=1;align=center;verticalAlign=middle;resizable=0;points=[];" connectable="0" vertex="1" parent="KM78LgGcO-5bWVKjjNVh-99">
          <mxGeometry x="-0.3889" relative="1" as="geometry">
            <mxPoint as="offset" />
          </mxGeometry>
        </mxCell>
        <mxCell id="KM78LgGcO-5bWVKjjNVh-109" style="edgeStyle=orthogonalEdgeStyle;rounded=0;orthogonalLoop=1;jettySize=auto;html=1;" edge="1" parent="1" source="KM78LgGcO-5bWVKjjNVh-100">
          <mxGeometry relative="1" as="geometry">
            <mxPoint x="1110" y="-690" as="targetPoint" />
          </mxGeometry>
        </mxCell>
        <mxCell id="KM78LgGcO-5bWVKjjNVh-114" value="Yes" style="edgeLabel;html=1;align=center;verticalAlign=middle;resizable=0;points=[];" connectable="0" vertex="1" parent="KM78LgGcO-5bWVKjjNVh-109">
          <mxGeometry x="-0.2764" y="-1" relative="1" as="geometry">
            <mxPoint y="-2" as="offset" />
          </mxGeometry>
        </mxCell>
        <mxCell id="KM78LgGcO-5bWVKjjNVh-100" value="weathernum==3?" style="rhombus;whiteSpace=wrap;html=1;" vertex="1" parent="1">
          <mxGeometry x="930" y="-730" width="140" height="80" as="geometry" />
        </mxCell>
        <mxCell id="KM78LgGcO-5bWVKjjNVh-101" style="edgeStyle=orthogonalEdgeStyle;rounded=0;orthogonalLoop=1;jettySize=auto;html=1;" edge="1" parent="1" source="KM78LgGcO-5bWVKjjNVh-102">
          <mxGeometry relative="1" as="geometry">
            <mxPoint x="1000" y="-510" as="targetPoint" />
          </mxGeometry>
        </mxCell>
        <mxCell id="KM78LgGcO-5bWVKjjNVh-117" value="No" style="edgeLabel;html=1;align=center;verticalAlign=middle;resizable=0;points=[];" connectable="0" vertex="1" parent="KM78LgGcO-5bWVKjjNVh-101">
          <mxGeometry x="-0.4326" relative="1" as="geometry">
            <mxPoint x="-1" as="offset" />
          </mxGeometry>
        </mxCell>
        <mxCell id="KM78LgGcO-5bWVKjjNVh-108" style="edgeStyle=orthogonalEdgeStyle;rounded=0;orthogonalLoop=1;jettySize=auto;html=1;" edge="1" parent="1" source="KM78LgGcO-5bWVKjjNVh-102">
          <mxGeometry relative="1" as="geometry">
            <mxPoint x="1110" y="-580" as="targetPoint" />
          </mxGeometry>
        </mxCell>
        <mxCell id="KM78LgGcO-5bWVKjjNVh-115" value="Yes" style="edgeLabel;html=1;align=center;verticalAlign=middle;resizable=0;points=[];" connectable="0" vertex="1" parent="KM78LgGcO-5bWVKjjNVh-108">
          <mxGeometry x="-0.2764" y="-1" relative="1" as="geometry">
            <mxPoint x="-1" y="-1" as="offset" />
          </mxGeometry>
        </mxCell>
        <mxCell id="KM78LgGcO-5bWVKjjNVh-102" value="weathernum==4?" style="rhombus;whiteSpace=wrap;html=1;" vertex="1" parent="1">
          <mxGeometry x="930" y="-620" width="140" height="80" as="geometry" />
        </mxCell>
        <mxCell id="KM78LgGcO-5bWVKjjNVh-107" style="edgeStyle=orthogonalEdgeStyle;rounded=0;orthogonalLoop=1;jettySize=auto;html=1;" edge="1" parent="1" source="KM78LgGcO-5bWVKjjNVh-104">
          <mxGeometry relative="1" as="geometry">
            <mxPoint x="1110" y="-470" as="targetPoint" />
          </mxGeometry>
        </mxCell>
        <mxCell id="KM78LgGcO-5bWVKjjNVh-116" value="Yes" style="edgeLabel;html=1;align=center;verticalAlign=middle;resizable=0;points=[];" connectable="0" vertex="1" parent="KM78LgGcO-5bWVKjjNVh-107">
          <mxGeometry x="-0.2764" y="-2" relative="1" as="geometry">
            <mxPoint y="-3" as="offset" />
          </mxGeometry>
        </mxCell>
        <mxCell id="KM78LgGcO-5bWVKjjNVh-104" value="weathernum==5?" style="rhombus;whiteSpace=wrap;html=1;" vertex="1" parent="1">
          <mxGeometry x="930" y="-510" width="140" height="80" as="geometry" />
        </mxCell>
        <mxCell id="KM78LgGcO-5bWVKjjNVh-105" value="" style="endArrow=none;html=1;rounded=0;" edge="1" parent="1">
          <mxGeometry width="50" height="50" relative="1" as="geometry">
            <mxPoint x="1000" y="-360" as="sourcePoint" />
            <mxPoint x="1000" y="-430" as="targetPoint" />
          </mxGeometry>
        </mxCell>
        <mxCell id="KM78LgGcO-5bWVKjjNVh-121" value="No" style="edgeLabel;html=1;align=center;verticalAlign=middle;resizable=0;points=[];" connectable="0" vertex="1" parent="KM78LgGcO-5bWVKjjNVh-105">
          <mxGeometry x="0.5238" relative="1" as="geometry">
            <mxPoint as="offset" />
          </mxGeometry>
        </mxCell>
        <mxCell id="KM78LgGcO-5bWVKjjNVh-106" value="" style="endArrow=classic;html=1;rounded=0;" edge="1" parent="1">
          <mxGeometry width="50" height="50" relative="1" as="geometry">
            <mxPoint x="1000" y="-360" as="sourcePoint" />
            <mxPoint x="1110" y="-360" as="targetPoint" />
          </mxGeometry>
        </mxCell>
        <mxCell id="KM78LgGcO-5bWVKjjNVh-123" value="&lt;div&gt;Output &quot;Put on&lt;/div&gt;&lt;div&gt;your favorite sneakers!&quot;&lt;/div&gt;" style="shape=parallelogram;perimeter=parallelogramPerimeter;whiteSpace=wrap;html=1;fixedSize=1;" vertex="1" parent="1">
          <mxGeometry x="1100" y="-940" width="120" height="60" as="geometry" />
        </mxCell>
        <mxCell id="KM78LgGcO-5bWVKjjNVh-124" value="&lt;div&gt;Output &quot;Rain&lt;/div&gt;&lt;div&gt;&amp;nbsp;boots - great&amp;nbsp;&lt;/div&gt;&lt;div&gt;idea!&quot;&lt;/div&gt;" style="shape=parallelogram;perimeter=parallelogramPerimeter;whiteSpace=wrap;html=1;fixedSize=1;" vertex="1" parent="1">
          <mxGeometry x="1100" y="-830" width="120" height="60" as="geometry" />
        </mxCell>
        <mxCell id="KM78LgGcO-5bWVKjjNVh-125" value="&lt;div&gt;Output &quot;Any&amp;nbsp;&lt;/div&gt;&lt;div&gt;shoes are good today.&quot;&lt;/div&gt;" style="shape=parallelogram;perimeter=parallelogramPerimeter;whiteSpace=wrap;html=1;fixedSize=1;" vertex="1" parent="1">
          <mxGeometry x="1100" y="-720" width="120" height="60" as="geometry" />
        </mxCell>
        <mxCell id="KM78LgGcO-5bWVKjjNVh-126" value="&lt;div&gt;Output &quot;Snow&amp;nbsp;&lt;/div&gt;&lt;div&gt;shoes will&amp;nbsp;&lt;/div&gt;&lt;div&gt;warm your toes!&quot;&lt;/div&gt;" style="shape=parallelogram;perimeter=parallelogramPerimeter;whiteSpace=wrap;html=1;fixedSize=1;" vertex="1" parent="1">
          <mxGeometry x="1100" y="-607.67" width="130" height="60" as="geometry" />
        </mxCell>
        <mxCell id="KM78LgGcO-5bWVKjjNVh-127" value="&lt;div&gt;Output &quot;Put on&lt;/div&gt;&lt;div&gt;something&lt;/div&gt;&lt;div&gt;sturdy!&quot;&lt;/div&gt;" style="shape=parallelogram;perimeter=parallelogramPerimeter;whiteSpace=wrap;html=1;fixedSize=1;" vertex="1" parent="1">
          <mxGeometry x="1100" y="-500" width="120" height="60" as="geometry" />
        </mxCell>
        <mxCell id="KM78LgGcO-5bWVKjjNVh-128" value="&lt;div&gt;Output&amp;nbsp;&lt;/div&gt;&lt;div&gt;&quot;Something&#39;s&lt;/div&gt;&lt;div&gt;off...&quot;&lt;/div&gt;" style="shape=parallelogram;perimeter=parallelogramPerimeter;whiteSpace=wrap;html=1;fixedSize=1;" vertex="1" parent="1">
          <mxGeometry x="1100" y="-390" width="120" height="60" as="geometry" />
        </mxCell>
        <mxCell id="KM78LgGcO-5bWVKjjNVh-130" value="" style="endArrow=none;html=1;rounded=0;" edge="1" parent="1">
          <mxGeometry width="50" height="50" relative="1" as="geometry">
            <mxPoint x="1210" y="-910.33" as="sourcePoint" />
            <mxPoint x="1280" y="-910" as="targetPoint" />
          </mxGeometry>
        </mxCell>
        <mxCell id="KM78LgGcO-5bWVKjjNVh-131" value="break" style="edgeLabel;html=1;align=center;verticalAlign=middle;resizable=0;points=[];" connectable="0" vertex="1" parent="KM78LgGcO-5bWVKjjNVh-130">
          <mxGeometry x="-0.159" y="-1" relative="1" as="geometry">
            <mxPoint x="3" y="-2" as="offset" />
          </mxGeometry>
        </mxCell>
        <mxCell id="KM78LgGcO-5bWVKjjNVh-132" value="" style="endArrow=none;html=1;rounded=0;" edge="1" parent="1">
          <mxGeometry width="50" height="50" relative="1" as="geometry">
            <mxPoint x="1210" y="-800" as="sourcePoint" />
            <mxPoint x="1280" y="-799.67" as="targetPoint" />
          </mxGeometry>
        </mxCell>
        <mxCell id="KM78LgGcO-5bWVKjjNVh-133" value="break" style="edgeLabel;html=1;align=center;verticalAlign=middle;resizable=0;points=[];" connectable="0" vertex="1" parent="KM78LgGcO-5bWVKjjNVh-132">
          <mxGeometry x="-0.159" y="-1" relative="1" as="geometry">
            <mxPoint x="3" y="-2" as="offset" />
          </mxGeometry>
        </mxCell>
        <mxCell id="KM78LgGcO-5bWVKjjNVh-134" value="" style="endArrow=none;html=1;rounded=0;" edge="1" parent="1">
          <mxGeometry width="50" height="50" relative="1" as="geometry">
            <mxPoint x="1210" y="-690.33" as="sourcePoint" />
            <mxPoint x="1280" y="-690" as="targetPoint" />
          </mxGeometry>
        </mxCell>
        <mxCell id="KM78LgGcO-5bWVKjjNVh-135" value="break" style="edgeLabel;html=1;align=center;verticalAlign=middle;resizable=0;points=[];" connectable="0" vertex="1" parent="KM78LgGcO-5bWVKjjNVh-134">
          <mxGeometry x="-0.159" y="-1" relative="1" as="geometry">
            <mxPoint x="3" y="-2" as="offset" />
          </mxGeometry>
        </mxCell>
        <mxCell id="KM78LgGcO-5bWVKjjNVh-136" value="" style="endArrow=none;html=1;rounded=0;exitX=1;exitY=0.5;exitDx=0;exitDy=0;" edge="1" parent="1" source="KM78LgGcO-5bWVKjjNVh-126">
          <mxGeometry width="50" height="50" relative="1" as="geometry">
            <mxPoint x="1210" y="-578" as="sourcePoint" />
            <mxPoint x="1280" y="-577.6700000000001" as="targetPoint" />
          </mxGeometry>
        </mxCell>
        <mxCell id="KM78LgGcO-5bWVKjjNVh-137" value="break" style="edgeLabel;html=1;align=center;verticalAlign=middle;resizable=0;points=[];" connectable="0" vertex="1" parent="KM78LgGcO-5bWVKjjNVh-136">
          <mxGeometry x="-0.159" y="-1" relative="1" as="geometry">
            <mxPoint x="3" y="-2" as="offset" />
          </mxGeometry>
        </mxCell>
        <mxCell id="KM78LgGcO-5bWVKjjNVh-138" value="" style="endArrow=none;html=1;rounded=0;" edge="1" parent="1">
          <mxGeometry width="50" height="50" relative="1" as="geometry">
            <mxPoint x="1210" y="-470.00000000000006" as="sourcePoint" />
            <mxPoint x="1280" y="-469.67" as="targetPoint" />
          </mxGeometry>
        </mxCell>
        <mxCell id="KM78LgGcO-5bWVKjjNVh-139" value="break" style="edgeLabel;html=1;align=center;verticalAlign=middle;resizable=0;points=[];" connectable="0" vertex="1" parent="KM78LgGcO-5bWVKjjNVh-138">
          <mxGeometry x="-0.159" y="-1" relative="1" as="geometry">
            <mxPoint x="3" y="-2" as="offset" />
          </mxGeometry>
        </mxCell>
        <mxCell id="KM78LgGcO-5bWVKjjNVh-140" value="" style="endArrow=none;html=1;rounded=0;" edge="1" parent="1">
          <mxGeometry width="50" height="50" relative="1" as="geometry">
            <mxPoint x="1210" y="-360.33000000000004" as="sourcePoint" />
            <mxPoint x="1280" y="-360" as="targetPoint" />
          </mxGeometry>
        </mxCell>
        <mxCell id="KM78LgGcO-5bWVKjjNVh-141" value="break" style="edgeLabel;html=1;align=center;verticalAlign=middle;resizable=0;points=[];" connectable="0" vertex="1" parent="KM78LgGcO-5bWVKjjNVh-140">
          <mxGeometry x="-0.159" y="-1" relative="1" as="geometry">
            <mxPoint x="3" y="-2" as="offset" />
          </mxGeometry>
        </mxCell>
        <mxCell id="KM78LgGcO-5bWVKjjNVh-142" value="" style="endArrow=none;html=1;rounded=0;" edge="1" parent="1">
          <mxGeometry width="50" height="50" relative="1" as="geometry">
            <mxPoint x="1280" y="-360" as="sourcePoint" />
            <mxPoint x="1280" y="-910" as="targetPoint" />
          </mxGeometry>
        </mxCell>
        <mxCell id="KM78LgGcO-5bWVKjjNVh-143" value="" style="endArrow=classic;html=1;rounded=0;" edge="1" parent="1">
          <mxGeometry width="50" height="50" relative="1" as="geometry">
            <mxPoint x="1280" y="-360" as="sourcePoint" />
            <mxPoint x="1280" y="-310" as="targetPoint" />
          </mxGeometry>
        </mxCell>
        <mxCell id="KM78LgGcO-5bWVKjjNVh-144" value="End" style="ellipse;whiteSpace=wrap;html=1;" vertex="1" parent="1">
          <mxGeometry x="1220" y="-310" width="120" height="80" as="geometry" />
        </mxCell>
      </root>
    </mxGraphModel>
  </diagram>
</mxfile>
